<svg xmlns="http://www.w3.org/2000/svg"  style="display:none"><symbol id="unfold" viewBox="0 0 25 24" fill="none">
<g clip-path="url(#clip0_662_6569)">
<path d="M4.07533 11.8564L22.2227 11.8564M22.2227 11.8564L19.2227 14.8564M22.2227 11.8564L19.2227 8.85644" stroke="#BBB8C3" stroke-width="2" stroke-linecap="round" stroke-linejoin="round"></path>
<path d="M4.07645 18L13.9336 18" stroke="#BBB8C3" stroke-width="2" stroke-linecap="round" stroke-linejoin="round"></path>
<path d="M4.07645 5.85644L13.9336 5.85645" stroke="#BBB8C3" stroke-width="2" stroke-linecap="round" stroke-linejoin="round"></path>
</g>
<defs>
<clipPath id="clip0_662_6569">
<rect width="24" height="24" fill="white" transform="matrix(0 1 1 0 0.222656 0)"></rect>
</clipPath>
</defs>
</symbol><symbol id="tooltip" viewBox="0 0 28 28" fill="none">
<path d="M14 2.625C11.7502 2.625 9.551 3.29213 7.68039 4.54203C5.80978 5.79193 4.35182 7.56847 3.49088 9.64698C2.62993 11.7255 2.40467 14.0126 2.84357 16.2192C3.28248 18.4257 4.36584 20.4525 5.95667 22.0433C7.54749 23.6342 9.57432 24.7175 11.7809 25.1564C13.9874 25.5953 16.2745 25.3701 18.353 24.5091C20.4315 23.6482 22.2081 22.1902 23.458 20.3196C24.7079 18.449 25.375 16.2498 25.375 14C25.3718 10.9841 24.1724 8.09271 22.0398 5.96018C19.9073 3.82764 17.0159 2.62818 14 2.625ZM14 23.625C12.0964 23.625 10.2355 23.0605 8.65264 22.0029C7.06982 20.9453 5.83616 19.4421 5.10766 17.6833C4.37917 15.9246 4.18856 13.9893 4.55995 12.1223C4.93133 10.2552 5.84802 8.54018 7.1941 7.1941C8.54018 5.84802 10.2552 4.93132 12.1223 4.55994C13.9893 4.18856 15.9246 4.37917 17.6833 5.10766C19.4421 5.83615 20.9453 7.06981 22.0029 8.65264C23.0605 10.2355 23.625 12.0964 23.625 14C23.6221 16.5518 22.6071 18.9983 20.8027 20.8027C18.9983 22.6071 16.5518 23.6221 14 23.625ZM15.75 19.25C15.75 19.4821 15.6578 19.7046 15.4937 19.8687C15.3296 20.0328 15.1071 20.125 14.875 20.125C14.4109 20.125 13.9658 19.9406 13.6376 19.6124C13.3094 19.2842 13.125 18.8391 13.125 18.375V14C12.8929 14 12.6704 13.9078 12.5063 13.7437C12.3422 13.5796 12.25 13.3571 12.25 13.125C12.25 12.8929 12.3422 12.6704 12.5063 12.5063C12.6704 12.3422 12.8929 12.25 13.125 12.25C13.5891 12.25 14.0343 12.4344 14.3624 12.7626C14.6906 13.0908 14.875 13.5359 14.875 14V18.375C15.1071 18.375 15.3296 18.4672 15.4937 18.6313C15.6578 18.7954 15.75 19.0179 15.75 19.25ZM12.25 9.1875C12.25 8.92791 12.327 8.67415 12.4712 8.45831C12.6154 8.24247 12.8204 8.07425 13.0602 7.97491C13.3001 7.87557 13.564 7.84958 13.8186 7.90022C14.0732 7.95086 14.307 8.07587 14.4906 8.25942C14.6741 8.44298 14.7991 8.67684 14.8498 8.93144C14.9004 9.18604 14.8744 9.44994 14.7751 9.68977C14.6758 9.9296 14.5075 10.1346 14.2917 10.2788C14.0759 10.423 13.8221 10.5 13.5625 10.5C13.2144 10.5 12.8806 10.3617 12.6344 10.1156C12.3883 9.86944 12.25 9.5356 12.25 9.1875Z" fill="white"></path>
</symbol><symbol id="timeline" viewBox="0 0 24 24" fill="none">
<path d="M17 3.33989C18.5083 4.21075 19.7629 5.46042 20.6398 6.96519C21.5167 8.46997 21.9854 10.1777 21.9994 11.9192C22.0135 13.6608 21.5725 15.3758 20.72 16.8946C19.8676 18.4133 18.6332 19.6831 17.1392 20.5782C15.6452 21.4733 13.9434 21.9627 12.2021 21.998C10.4608 22.0332 8.74055 21.6131 7.21155 20.7791C5.68256 19.9452 4.39787 18.7264 3.48467 17.2434C2.57146 15.7604 2.06141 14.0646 2.005 12.3239L2 11.9999L2.005 11.6759C2.061 9.94888 2.56355 8.26585 3.46364 6.79089C4.36373 5.31592 5.63065 4.09934 7.14089 3.25977C8.65113 2.42021 10.3531 1.98629 12.081 2.00033C13.8089 2.01437 15.5036 2.47589 17 3.33989ZM12 5.99989C11.7551 5.99992 11.5187 6.08985 11.3356 6.25261C11.1526 6.41537 11.0357 6.63964 11.007 6.88289L11 6.99989V11.9999L11.009 12.1309C11.0318 12.3044 11.0997 12.4689 11.206 12.6079L11.293 12.7079L14.293 15.7079L14.387 15.7899C14.5624 15.926 14.778 15.9998 15 15.9998C15.222 15.9998 15.4376 15.926 15.613 15.7899L15.707 15.7069L15.79 15.6129C15.9261 15.4375 15.9999 15.2219 15.9999 14.9999C15.9999 14.7779 15.9261 14.5623 15.79 14.3869L15.707 14.2929L13 11.5849V6.99989L12.993 6.88289C12.9643 6.63964 12.8474 6.41537 12.6644 6.25261C12.4813 6.08985 12.2449 5.99992 12 5.99989Z" fill="white"></path>
</symbol><symbol id="send" viewBox="0 0 25 24" fill="none">
<g clip-path="url(#clip0_636_9976)">
<path d="M21.9163 4.15687C21.9163 4.15687 21.9163 4.16625 21.9163 4.17094L16.4601 22.1653C16.3775 22.4576 16.2075 22.7176 15.9729 22.9105C15.7383 23.1034 15.4503 23.2199 15.1476 23.2444C15.1045 23.2481 15.0613 23.25 15.0182 23.25C14.7345 23.2509 14.4565 23.1706 14.2169 23.0186C13.9774 22.8666 13.7864 22.6492 13.6663 22.3922L10.2538 15.3891C10.2197 15.3189 10.2083 15.2398 10.2212 15.1628C10.2342 15.0859 10.2708 15.0148 10.326 14.9597L15.756 9.52969C15.8907 9.38789 15.9647 9.19908 15.9622 9.00351C15.9597 8.80794 15.8809 8.62108 15.7426 8.48278C15.6043 8.34448 15.4175 8.26567 15.2219 8.26317C15.0263 8.26067 14.8375 8.33466 14.6957 8.46937L9.26289 13.8994C9.20773 13.9546 9.13672 13.9912 9.05975 14.0042C8.98279 14.0171 8.9037 14.0057 8.83352 13.9716L1.82383 10.56C1.54972 10.4285 1.32205 10.2168 1.17097 9.95298C1.01989 9.68915 0.952552 9.38565 0.977866 9.08269C1.00318 8.77972 1.11996 8.4916 1.31272 8.25651C1.50549 8.02141 1.76514 7.85044 2.05727 7.76625L20.0516 2.31H20.0657C20.3219 2.23802 20.5926 2.2355 20.8501 2.30269C21.1076 2.36988 21.3426 2.50437 21.531 2.69235C21.7194 2.88034 21.8543 3.11506 21.922 3.37242C21.9898 3.62978 21.9878 3.90053 21.9163 4.15687Z" fill="#29252B"></path>
</g>
<defs>
<clipPath id="clip0_636_9976">
<rect width="24" height="24" fill="white" transform="translate(0.222656)"></rect>
</clipPath>
</defs>
</symbol><symbol id="plus" viewBox="0 0 32 32" fill="none">
<path d="M15.9974 6.66602V25.3327M6.66406 15.9993H25.3307" stroke="#29252B" stroke-width="3" stroke-linecap="round" stroke-linejoin="round"></path>
</symbol><symbol id="naver" viewBox="0 0 24 24" fill="none">
<g clip-path="url(#clip0_955_14608)">
<path d="M15.4692 12.2502L8.99765 2.90913H3.63379V20.3637H9.25294V11.0211L15.7245 20.3637H21.0883V2.90913H15.4692V12.2502Z" fill="white"></path>
</g>
<defs>
<clipPath id="clip0_955_14608">
<rect width="17.4545" height="17.4545" fill="white" transform="translate(3.63379 2.90913)"></rect>
</clipPath>
</defs>
</symbol><symbol id="mic" viewBox="0 0 24 24" fill="none">
<path d="M7.5 12V6C7.5 4.80653 7.97411 3.66193 8.81802 2.81802C9.66193 1.97411 10.8065 1.5 12 1.5C13.1935 1.5 14.3381 1.97411 15.182 2.81802C16.0259 3.66193 16.5 4.80653 16.5 6V12C16.5 13.1935 16.0259 14.3381 15.182 15.182C14.3381 16.0259 13.1935 16.5 12 16.5C10.8065 16.5 9.66193 16.0259 8.81802 15.182C7.97411 14.3381 7.5 13.1935 7.5 12ZM19.5 12C19.5 11.8011 19.421 11.6103 19.2803 11.4697C19.1397 11.329 18.9489 11.25 18.75 11.25C18.5511 11.25 18.3603 11.329 18.2197 11.4697C18.079 11.6103 18 11.8011 18 12C18 13.5913 17.3679 15.1174 16.2426 16.2426C15.1174 17.3679 13.5913 18 12 18C10.4087 18 8.88258 17.3679 7.75736 16.2426C6.63214 15.1174 6 13.5913 6 12C6 11.8011 5.92098 11.6103 5.78033 11.4697C5.63968 11.329 5.44891 11.25 5.25 11.25C5.05109 11.25 4.86032 11.329 4.71967 11.4697C4.57902 11.6103 4.5 11.8011 4.5 12C4.50228 13.8586 5.19368 15.6504 6.44048 17.0288C7.68728 18.4072 9.40091 19.2743 11.25 19.4625V22.5C11.25 22.6989 11.329 22.8897 11.4697 23.0303C11.6103 23.171 11.8011 23.25 12 23.25C12.1989 23.25 12.3897 23.171 12.5303 23.0303C12.671 22.8897 12.75 22.6989 12.75 22.5V19.4625C14.5991 19.2743 16.3127 18.4072 17.5595 17.0288C18.8063 15.6504 19.4977 13.8586 19.5 12Z" fill="#29252B"></path>
</symbol><symbol id="memo" viewBox="0 0 24 24" fill="none">
<g clip-path="url(#clip0_519_17228)">
<path d="M9 4V22M6 4H17C17.5304 4 18.0391 4.21071 18.4142 4.58579C18.7893 4.96086 19 5.46957 19 6V18C19 18.5304 18.7893 19.0391 18.4142 19.4142C18.0391 19.7893 17.5304 20 17 20H6C5.73478 20 5.48043 19.8946 5.29289 19.7071C5.10536 19.5196 5 19.2652 5 19V5C5 4.73478 5.10536 4.48043 5.29289 4.29289C5.48043 4.10536 5.73478 4 6 4Z" stroke="#29252B" stroke-width="2" stroke-linecap="round" stroke-linejoin="round"></path>
<path d="M13 8H15" stroke="#29252B" stroke-width="2" stroke-linecap="round" stroke-linejoin="round"></path>
<path d="M13 12H15" stroke="#29252B" stroke-width="2" stroke-linecap="round" stroke-linejoin="round"></path>
</g>
<defs>
<clipPath id="clip0_519_17228">
<rect width="24" height="24" fill="white"></rect>
</clipPath>
</defs>
</symbol><symbol id="layout2" viewBox="0 0 25 24" fill="none">
<g clip-path="url(#clip0_519_16020)">
<path d="M18.2227 3C19.0183 3 19.7814 3.31607 20.344 3.87868C20.9066 4.44129 21.2227 5.20435 21.2227 6V8C21.2227 8.79565 20.9066 9.55871 20.344 10.1213C19.7814 10.6839 19.0183 11 18.2227 11H6.22266C5.42701 11 4.66395 10.6839 4.10134 10.1213C3.53873 9.55871 3.22266 8.79565 3.22266 8V6C3.22266 5.20435 3.53873 4.44129 4.10134 3.87868C4.66395 3.31607 5.42701 3 6.22266 3H18.2227Z" fill="#6F6A78"></path>
<path d="M18.2227 13C19.0183 13 19.7814 13.3161 20.344 13.8787C20.9066 14.4413 21.2227 15.2044 21.2227 16V18C21.2227 18.7956 20.9066 19.5587 20.344 20.1213C19.7814 20.6839 19.0183 21 18.2227 21H6.22266C5.42701 21 4.66395 20.6839 4.10134 20.1213C3.53873 19.5587 3.22266 18.7956 3.22266 18V16C3.22266 15.2044 3.53873 14.4413 4.10134 13.8787C4.66395 13.3161 5.42701 13 6.22266 13H18.2227Z" fill="#6F6A78"></path>
</g>
<defs>
<clipPath id="clip0_519_16020">
<rect width="24" height="24" fill="white" transform="translate(0.222656)"></rect>
</clipPath>
</defs>
</symbol><symbol id="layout1" viewBox="0 0 24 24" fill="none">
<g clip-path="url(#clip0_519_16021)">
<path d="M9 3C9.53043 3 10.0391 3.21071 10.4142 3.58579C10.7893 3.96086 11 4.46957 11 5V9C11 9.53043 10.7893 10.0391 10.4142 10.4142C10.0391 10.7893 9.53043 11 9 11H5C4.46957 11 3.96086 10.7893 3.58579 10.4142C3.21071 10.0391 3 9.53043 3 9V5C3 4.46957 3.21071 3.96086 3.58579 3.58579C3.96086 3.21071 4.46957 3 5 3H9Z" fill="#6F6A78"></path>
<path d="M19 3C19.5304 3 20.0391 3.21071 20.4142 3.58579C20.7893 3.96086 21 4.46957 21 5V9C21 9.53043 20.7893 10.0391 20.4142 10.4142C20.0391 10.7893 19.5304 11 19 11H15C14.4696 11 13.9609 10.7893 13.5858 10.4142C13.2107 10.0391 13 9.53043 13 9V5C13 4.46957 13.2107 3.96086 13.5858 3.58579C13.9609 3.21071 14.4696 3 15 3H19Z" fill="#6F6A78"></path>
<path d="M9 13C9.53043 13 10.0391 13.2107 10.4142 13.5858C10.7893 13.9609 11 14.4696 11 15V19C11 19.5304 10.7893 20.0391 10.4142 20.4142C10.0391 20.7893 9.53043 21 9 21H5C4.46957 21 3.96086 20.7893 3.58579 20.4142C3.21071 20.0391 3 19.5304 3 19V15C3 14.4696 3.21071 13.9609 3.58579 13.5858C3.96086 13.2107 4.46957 13 5 13H9Z" fill="#6F6A78"></path>
<path d="M19 13C19.5304 13 20.0391 13.2107 20.4142 13.5858C20.7893 13.9609 21 14.4696 21 15V19C21 19.5304 20.7893 20.0391 20.4142 20.4142C20.0391 20.7893 19.5304 21 19 21H15C14.4696 21 13.9609 20.7893 13.5858 20.4142C13.2107 20.0391 13 19.5304 13 19V15C13 14.4696 13.2107 13.9609 13.5858 13.5858C13.9609 13.2107 14.4696 13 15 13H19Z" fill="#6F6A78"></path>
</g>
<defs>
<clipPath id="clip0_519_16021">
<rect width="24" height="24" fill="white"></rect>
</clipPath>
</defs>
</symbol><symbol id="kebab" viewBox="0 0 16 16" fill="none">
<circle cx="8" cy="5" r="1" fill="#D5D3DA"></circle>
<circle cx="8" cy="8" r="1" fill="#D5D3DA"></circle>
<circle cx="8" cy="11" r="1" fill="#D5D3DA"></circle>
</symbol><symbol id="kakao" viewBox="0 0 25 24" fill="none">
<path d="M11.8371 3C6.52716 3 2.22266 6.48454 2.22266 10.7831C2.22266 13.5255 3.97889 15.9314 6.62606 17.3177L5.61013 20.7042C5.54833 20.9098 5.7777 21.0797 5.95625 20.9606L9.81209 18.3899C10.4654 18.5035 11.1421 18.5662 11.8371 18.5662C17.147 18.5662 21.4515 15.0816 21.4515 10.7831C21.4515 6.48454 17.147 3 11.8371 3Z" fill="#29252B"></path>
</symbol><symbol id="image" viewBox="0 0 20 20" fill="none">
<rect x="1.75" y="5.75" width="12.5" height="12.5" rx="2.25" stroke="#29252B" stroke-width="1.5"></rect>
<rect x="4.75" y="2.75" width="12.5" height="12.5" rx="2.25" fill="white" stroke="#29252B" stroke-width="1.5"></rect>
<path d="M12.9111 8.15441C13.503 7.52799 14.4999 7.52793 15.0918 8.15441L18 11.2325C18 13.4514 16.2013 15.2501 13.9824 15.2501H6.20703L12.9111 8.15441Z" fill="#29252B"></path>
<circle cx="8.5" cy="6.5" r="1.5" fill="#29252B"></circle>
</symbol><symbol id="home" viewBox="0 0 28 29" fill="none">
<path fill-rule="evenodd" clip-rule="evenodd" d="M11.5215 6.81334C12.7534 5.91003 14.4292 5.91013 15.6611 6.81334L19.8809 9.92955C20.6937 10.5181 21.1771 11.4592 21.1826 12.4628V18.1044C21.1315 19.8565 19.7202 21.2519 17.9873 21.3006H9.20312C7.46737 21.2556 6.05107 19.8594 6 18.1044V12.4628C6.00556 11.4593 6.49008 10.5181 7.30273 9.92955L11.5215 6.81334ZM14.3438 17.9452H16.96V15.7508H14.3438V17.9452ZM10.2119 17.9452H12.8262V15.7508H10.2129L10.2119 15.7499V17.9452ZM14.3438 14.2333H16.96V12.0399H14.3438V14.2333ZM10.2119 14.2333H12.8262V12.0399H10.2119V14.2333Z" fill="#29252B"></path>
</symbol><symbol id="google" viewBox="0 0 24 24" fill="none">
<path d="M20.6426 12.2152C20.6426 11.6074 20.5838 10.9799 20.4858 10.3917H11.9961V13.8621H16.8585C16.6625 14.9797 16.0155 15.96 15.0547 16.5875L17.9565 18.8422C19.6623 17.2541 20.6426 14.9405 20.6426 12.2152Z" fill="#4280EF"></path>
<path d="M11.9958 20.9997C14.427 20.9997 16.4661 20.1959 17.9562 18.8234L15.0544 16.5882C14.2505 17.1372 13.2114 17.4509 11.9958 17.4509C9.64296 17.4509 7.66269 15.8628 6.93724 13.7453L3.95703 16.0392C5.48635 19.0783 8.5842 20.9997 11.9958 20.9997Z" fill="#34A353"></path>
<path d="M6.93604 13.7264C6.56351 12.6088 6.56351 11.3932 6.93604 10.2756L3.95582 7.96206C2.68139 10.5109 2.68139 13.5107 3.95582 16.04L6.93604 13.7264Z" fill="#F6B704"></path>
<path d="M11.9958 6.5689C13.2702 6.54929 14.525 7.03946 15.4465 7.92176L18.015 5.33368C16.3877 3.80436 14.2309 2.98088 11.9958 3.00049C8.5842 3.00049 5.48635 4.92194 3.95703 7.96097L6.93724 10.2746C7.66269 8.13743 9.64296 6.5689 11.9958 6.5689Z" fill="#E54335"></path>
</symbol><symbol id="gnb-menu" viewBox="0 0 24 24" fill="none">
<rect x="3" y="6" width="18" height="2" rx="1" fill="#8F8B99"></rect>
<rect x="3" y="11" width="18" height="2" rx="1" fill="#8F8B99"></rect>
<rect x="3" y="16" width="18" height="2" rx="1" fill="#8F8B99"></rect>
</symbol><symbol id="fold" viewBox="0 0 24 24" fill="none">
<g clip-path="url(#clip0_662_5429)">
<path d="M20.5731 12H2.42578M2.42578 12L5.42578 9M2.42578 12L5.42578 15" stroke="#BBB8C3" stroke-width="2.33333" stroke-linecap="round" stroke-linejoin="round"></path>
<path d="M20.572 5.85645H10.7148" stroke="#BBB8C3" stroke-width="2.33333" stroke-linecap="round" stroke-linejoin="round"></path>
<path d="M20.572 18H10.7148" stroke="#BBB8C3" stroke-width="2.33333" stroke-linecap="round" stroke-linejoin="round"></path>
</g>
<defs>
<clipPath id="clip0_662_5429">
<rect width="24" height="24" fill="white" transform="matrix(0 1 1 0 0 0)"></rect>
</clipPath>
</defs>
</symbol><symbol id="flag" viewBox="0 0 28 28" fill="none">
<path d="M19.2863 9.71959H18.4542C17.6238 9.7664 16.9122 9.13246 16.8631 8.30225V8.22909C16.8395 7.82867 16.6575 7.4541 16.3573 7.18814C16.057 6.92219 15.6632 6.78675 15.2628 6.81175H9.53861V6.51914C9.53861 6.14038 9.23157 5.83333 8.8528 5.83333C8.47404 5.83333 8.16699 6.14038 8.16699 6.51914V22.0642C8.16699 22.4429 8.47404 22.75 8.8528 22.75C9.23157 22.75 9.53861 22.4429 9.53861 22.0642V14.4928H10.6085C11.4388 14.446 12.1505 15.08 12.1996 15.9102V15.965C12.2486 16.7953 12.9603 17.4292 13.7906 17.3824H19.2771C20.1075 17.4292 20.8191 16.7953 20.8682 15.965V11.1186C20.8049 10.3018 20.1047 9.68259 19.2863 9.71959Z" fill="#29252B"></path>
</symbol><symbol id="delete" viewBox="0 0 24 25" fill="none">
<g clip-path="url(#clip0_1252_14446)">
<path d="M19.9999 6.32101C20.2547 6.3213 20.4999 6.41889 20.6852 6.59386C20.8706 6.76883 20.9821 7.00797 20.997 7.26241C21.012 7.51685 20.9292 7.76739 20.7656 7.96285C20.602 8.1583 20.37 8.28391 20.1169 8.31401L19.9999 8.32101H19.9189L18.9999 19.321C18.9999 20.0862 18.7075 20.8225 18.1826 21.3793C17.6576 21.936 16.9398 22.2711 16.1759 22.316L15.9999 22.321H7.99987C6.40187 22.321 5.09587 21.072 5.00787 19.571L5.00287 19.404L4.07987 8.32101H3.99987C3.74499 8.32073 3.49984 8.22314 3.3145 8.04817C3.12916 7.8732 3.01763 7.63406 3.0027 7.37962C2.98776 7.12518 3.07054 6.87464 3.23413 6.67918C3.39772 6.48373 3.62977 6.35812 3.88287 6.32801L3.99987 6.32101H19.9999ZM10.5109 11.461C10.3013 11.3363 10.0535 11.2924 9.81388 11.3376C9.57428 11.3829 9.35946 11.5141 9.20982 11.7066C9.06018 11.8991 8.98603 12.1397 9.00133 12.383C9.01662 12.6264 9.1203 12.8557 9.29287 13.028L10.5849 14.321L9.29287 15.614L9.20987 15.708C9.05446 15.909 8.98138 16.1616 9.00547 16.4145C9.02956 16.6675 9.14902 16.9017 9.33959 17.0698C9.53016 17.2378 9.77754 17.327 10.0315 17.3192C10.2854 17.3115 10.5269 17.2074 10.7069 17.028L11.9999 15.736L13.2929 17.028L13.3869 17.111C13.5879 17.2664 13.8405 17.3395 14.0934 17.3154C14.3463 17.2913 14.5806 17.1719 14.7486 16.9813C14.9167 16.7907 15.0059 16.5433 14.9981 16.2894C14.9903 16.0354 14.8862 15.794 14.7069 15.614L13.4149 14.321L14.7069 13.028L14.7899 12.934C14.9453 12.733 15.0184 12.4804 14.9943 12.2275C14.9702 11.9746 14.8507 11.7403 14.6601 11.5723C14.4696 11.4042 14.2222 11.315 13.9683 11.3228C13.7143 11.3305 13.4728 11.4347 13.2929 11.614L11.9999 12.906L10.7069 11.614L10.6129 11.531L10.5109 11.461Z" fill="black"></path>
<path d="M14 2.32101C14.5304 2.32101 15.0391 2.53173 15.4142 2.9068C15.7893 3.28187 16 3.79058 16 4.32101C15.9997 4.57589 15.9021 4.82105 15.7272 5.00638C15.5522 5.19172 15.313 5.30325 15.0586 5.31819C14.8042 5.33312 14.5536 5.25034 14.3582 5.08675C14.1627 4.92316 14.0371 4.69111 14.007 4.43801L14 4.32101H10L9.993 4.43801C9.9629 4.69111 9.83729 4.92316 9.64183 5.08675C9.44638 5.25034 9.19584 5.33312 8.94139 5.31819C8.68695 5.30325 8.44782 5.19172 8.27285 5.00638C8.09788 4.82105 8.00028 4.57589 8 4.32101C7.99984 3.81644 8.19041 3.33045 8.5335 2.96047C8.87659 2.59049 9.34685 2.36386 9.85 2.32601L10 2.32101H14Z" fill="black"></path>
</g>
<defs>
<clipPath id="clip0_1252_14446">
<rect width="24" height="24" fill="white" transform="translate(0 0.321014)"></rect>
</clipPath>
</defs>
</symbol><symbol id="close" viewBox="0 0 25 24" fill="none">
<path d="M18.2227 6L6.22266 18M6.22266 6L18.2227 18" stroke="#29252B" stroke-width="2.5" stroke-linecap="round" stroke-linejoin="round"></path>
</symbol><symbol id="chevron-up" viewBox="0 0 25 25" fill="none">
<path d="M18.2227 15.1358L12.2227 9.1358L6.22266 15.1358" stroke="#29252B" stroke-width="2.5" stroke-linecap="round" stroke-linejoin="round"></path>
</symbol><symbol id="chevron-right" viewBox="0 0 25 24" fill="none">
<path d="M9.44434 18L15.4443 12L9.44434 6" stroke="#29252B" stroke-width="2.5" stroke-linecap="round" stroke-linejoin="round"></path>
</symbol><symbol id="chevron-left" viewBox="0 0 25 24" fill="none">
<path d="M15.2227 18L9.22266 12L15.2227 6" stroke="#29252B" stroke-width="2.5" stroke-linecap="round" stroke-linejoin="round"></path>
</symbol><symbol id="chevron-down" viewBox="0 0 25 25" fill="none">
<path d="M6.44434 9.1358L12.4443 15.1358L18.4443 9.1358" stroke="#29252B" stroke-width="2.5" stroke-linecap="round" stroke-linejoin="round"></path>
</symbol><symbol id="calendar" viewBox="0 0 25 24" fill="none">
<g clip-path="url(#clip0_519_16000)">
<path d="M16.2227 2C16.4057 2 16.5777 2.05 16.7247 2.135L16.7577 2.155C17.0377 2.332 17.2227 2.645 17.2227 3V4H18.2227C18.9879 3.99996 19.7242 4.29233 20.2809 4.81728C20.8377 5.34224 21.1728 6.06011 21.2177 6.824L21.2227 7V19C21.2227 19.7652 20.9303 20.5015 20.4054 21.0583C19.8804 21.615 19.1625 21.9501 18.3987 21.995L18.2227 22H6.22266C5.45745 22 4.72114 21.7077 4.1644 21.1827C3.60765 20.6578 3.27255 19.9399 3.22766 19.176L3.22266 19V7C3.22261 6.23479 3.51498 5.49849 4.03994 4.94174C4.5649 4.38499 5.28276 4.04989 6.04666 4.005L6.22266 4H7.22266V3C7.22265 2.82173 7.2703 2.64669 7.36067 2.49302C7.45104 2.33936 7.58085 2.21264 7.73666 2.126L7.82966 2.08L7.89566 2.055L7.99566 2.026L8.10266 2.007L8.22266 2C8.27799 2 8.33166 2.00433 8.38366 2.013L8.50566 2.042L8.54566 2.054L8.60566 2.077C8.93366 2.212 9.17366 2.517 9.21566 2.883L9.22266 3V4H15.2227V3C15.2227 2.73478 15.328 2.48043 15.5155 2.29289C15.7031 2.10536 15.9574 2 16.2227 2ZM19.2227 9H5.22266V18.625C5.22266 19.33 5.60866 19.911 6.10566 19.991L6.22266 20H18.2227C18.7357 20 19.1587 19.47 19.2157 18.785L19.2227 18.625V9Z" fill="#29252B"></path>
<path d="M9.23957 12.9999C9.23957 13.2651 9.13421 13.5195 8.94668 13.707C8.75914 13.8946 8.50479 13.9999 8.23957 13.9999C8.10451 14.0063 7.96955 13.9852 7.84285 13.938C7.71615 13.8908 7.60033 13.8184 7.50237 13.7252C7.40442 13.632 7.32637 13.5199 7.27292 13.3957C7.21948 13.2715 7.19175 13.1377 7.19141 13.0025C7.19107 12.8673 7.21813 12.7334 7.27095 12.609C7.32378 12.4845 7.40127 12.372 7.49876 12.2783C7.59624 12.1846 7.7117 12.1117 7.83816 12.0638C7.96463 12.0159 8.09948 11.9942 8.23457 11.9999C8.79157 11.9999 9.23957 12.4479 9.23957 12.9999Z" fill="#29252B"></path>
<path d="M13.2396 12.9999C13.2396 13.2651 13.1342 13.5195 12.9467 13.707C12.7591 13.8946 12.5048 13.9999 12.2396 13.9999C12.1045 14.0063 11.9696 13.9852 11.8428 13.938C11.7161 13.8908 11.6003 13.8184 11.5024 13.7252C11.4044 13.632 11.3264 13.5199 11.2729 13.3957C11.2195 13.2715 11.1917 13.1377 11.1914 13.0025C11.1911 12.8673 11.2181 12.7334 11.271 12.609C11.3238 12.4845 11.4013 12.372 11.4988 12.2783C11.5962 12.1846 11.7117 12.1117 11.8382 12.0638C11.9646 12.0159 12.0995 11.9942 12.2346 11.9999C12.7916 11.9999 13.2396 12.4479 13.2396 12.9999Z" fill="#29252B"></path>
<path d="M17.2435 12.9999C17.2435 13.2651 17.1381 13.5195 16.9506 13.707C16.763 13.8946 16.5087 13.9999 16.2435 13.9999C16.1084 14.0063 15.9735 13.9852 15.8468 13.938C15.7201 13.8908 15.6042 13.8184 15.5063 13.7252C15.4083 13.632 15.3303 13.5199 15.2768 13.3957C15.2234 13.2715 15.1957 13.1377 15.1953 13.0025C15.195 12.8673 15.222 12.7334 15.2749 12.609C15.3277 12.4845 15.4052 12.372 15.5027 12.2783C15.6001 12.1846 15.7156 12.1117 15.8421 12.0638C15.9685 12.0159 16.1034 11.9942 16.2385 11.9999C16.7955 11.9999 17.2435 12.4479 17.2435 12.9999Z" fill="#29252B"></path>
<path d="M12.2435 14.9999C12.5087 14.9999 12.763 15.1053 12.9506 15.2928C13.1381 15.4803 13.2435 15.7347 13.2435 15.9999C13.2435 16.2651 13.1381 16.5195 12.9506 16.707C12.763 16.8946 12.5087 16.9999 12.2435 16.9999C12.1084 17.0063 11.9735 16.9852 11.8468 16.938C11.7201 16.8908 11.6042 16.8184 11.5063 16.7252C11.4083 16.632 11.3303 16.5199 11.2768 16.3957C11.2234 16.2715 11.1957 16.1377 11.1953 16.0025C11.195 15.8673 11.222 15.7334 11.2749 15.609C11.3277 15.4845 11.4052 15.372 11.5027 15.2783C11.6001 15.1846 11.7156 15.1117 11.8421 15.0638C11.9685 15.0159 12.1034 14.9942 12.2385 14.9999H12.2435Z" fill="#29252B"></path>
<path d="M9.23957 15.9999C9.23957 16.2651 9.13421 16.5195 8.94668 16.707C8.75914 16.8946 8.50479 16.9999 8.23957 16.9999C8.10451 17.0063 7.96955 16.9852 7.84285 16.938C7.71615 16.8908 7.60033 16.8184 7.50237 16.7252C7.40442 16.632 7.32637 16.5199 7.27292 16.3957C7.21948 16.2715 7.19175 16.1377 7.19141 16.0025C7.19107 15.8673 7.21813 15.7334 7.27095 15.609C7.32378 15.4845 7.40127 15.372 7.49876 15.2783C7.59624 15.1846 7.7117 15.1117 7.83816 15.0638C7.96463 15.0159 8.09948 14.9942 8.23457 14.9999C8.79157 14.9999 9.23957 15.4479 9.23957 15.9999Z" fill="#29252B"></path>
</g>
<defs>
<clipPath id="clip0_519_16000">
<rect width="24" height="24" fill="white" transform="translate(0.222656)"></rect>
</clipPath>
</defs>
</symbol><symbol id="all" viewBox="0 0 28 28" fill="none">
<path d="M19.3726 6.953C19.8485 7.13875 20.2606 7.4835 20.5521 7.93971C20.8436 8.39592 21.0001 8.94109 21 9.5V20.3C21 21.0161 20.7432 21.7028 20.2861 22.2092C19.829 22.7155 19.209 23 18.5625 23H10.4375C9.79103 23 9.17105 22.7155 8.71393 22.2092C8.25681 21.7028 8 21.0161 8 20.3V9.5C7.99991 8.94109 8.15642 8.39592 8.44792 7.93971C8.73941 7.4835 9.15154 7.13875 9.62744 6.953C9.66306 7.88055 10.0208 8.75699 10.6259 9.39931C11.2311 10.0416 12.0369 10.4001 12.875 10.4H16.125C16.9303 10.4001 17.707 10.069 18.3044 9.47085C18.9019 8.87273 19.2776 8.0502 19.3587 7.1627L19.3726 6.953ZM12.0706 16.7H12.0625C11.8554 16.7003 11.6562 16.7881 11.5056 16.9456C11.3551 17.103 11.2644 17.3183 11.2523 17.5473C11.2402 17.7763 11.3074 18.0017 11.4403 18.1776C11.5733 18.3536 11.7618 18.4666 11.9674 18.4937L12.0706 18.5C12.2861 18.5 12.4928 18.4052 12.6451 18.2364C12.7975 18.0676 12.8831 17.8387 12.8831 17.6C12.8831 17.3613 12.7975 17.1324 12.6451 16.9636C12.4928 16.7948 12.2861 16.7 12.0706 16.7ZM16.9375 16.7H15.3125C15.097 16.7 14.8903 16.7948 14.738 16.9636C14.5856 17.1324 14.5 17.3613 14.5 17.6C14.5 17.8387 14.5856 18.0676 14.738 18.2364C14.8903 18.4052 15.097 18.5 15.3125 18.5H16.9375C17.153 18.5 17.3597 18.4052 17.512 18.2364C17.6644 18.0676 17.75 17.8387 17.75 17.6C17.75 17.3613 17.6644 17.1324 17.512 16.9636C17.3597 16.7948 17.153 16.7 16.9375 16.7ZM12.0706 13.1H12.0625C11.8554 13.1003 11.6562 13.1881 11.5056 13.3456C11.3551 13.503 11.2644 13.7183 11.2523 13.9473C11.2402 14.1763 11.3074 14.4017 11.4403 14.5776C11.5733 14.7536 11.7618 14.8666 11.9674 14.8937L12.0706 14.9C12.2861 14.9 12.4928 14.8052 12.6451 14.6364C12.7975 14.4676 12.8831 14.2387 12.8831 14C12.8831 13.7613 12.7975 13.5324 12.6451 13.3636C12.4928 13.1948 12.2861 13.1 12.0706 13.1ZM16.9375 13.1H15.3125C15.097 13.1 14.8903 13.1948 14.738 13.3636C14.5856 13.5324 14.5 13.7613 14.5 14C14.5 14.2387 14.5856 14.4676 14.738 14.6364C14.8903 14.8052 15.097 14.9 15.3125 14.9H16.9375C17.153 14.9 17.3597 14.8052 17.512 14.6364C17.6644 14.4676 17.75 14.2387 17.75 14C17.75 13.7613 17.6644 13.5324 17.512 13.3636C17.3597 13.1948 17.153 13.1 16.9375 13.1ZM16.125 5C16.556 5 16.9693 5.18964 17.274 5.52721C17.5788 5.86477 17.75 6.32261 17.75 6.8C17.75 7.27739 17.5788 7.73523 17.274 8.07279C16.9693 8.41036 16.556 8.6 16.125 8.6H12.875C12.444 8.6 12.0307 8.41036 11.726 8.07279C11.4212 7.73523 11.25 7.27739 11.25 6.8C11.25 6.32261 11.4212 5.86477 11.726 5.52721C12.0307 5.18964 12.444 5 12.875 5H16.125Z" fill="#29252B"></path>
</symbol><symbol id="alert" viewBox="0 0 24 24" fill="none">
<path d="M12 22C17.5228 22 22 17.5228 22 12C22 6.47715 17.5228 2 12 2C6.47715 2 2 6.47715 2 12C2 17.5228 6.47715 22 12 22Z" stroke="#8F3FFF" stroke-width="2" stroke-linecap="round" stroke-linejoin="round"></path>
<path d="M12 8V12" stroke="#8F3FFF" stroke-width="2" stroke-linecap="round" stroke-linejoin="round"></path>
<path d="M12 16H12.01" stroke="#8F3FFF" stroke-width="2" stroke-linecap="round" stroke-linejoin="round"></path>
</symbol><symbol id="active-on" viewBox="0 0 28 28" fill="none">
<rect x="1" y="1" width="26" height="26" rx="13" stroke="#AE7BF6" stroke-width="2"></rect>
<g clip-path="url(#clip0_1067_15454)">
<path d="M8.89697 13.9997L12.5428 17.6455L19.8345 10.3539" stroke="#AE7BF6" stroke-width="2.5" stroke-linecap="round" stroke-linejoin="round"></path>
</g>
<defs>
<clipPath id="clip0_1067_15454">
<rect width="17.5" height="17.5" fill="white" transform="translate(5.25 5.25)"></rect>
</clipPath>
</defs>
</symbol><symbol id="active-off" viewBox="0 0 28 28" fill="none">
<rect width="28" height="28" rx="14" fill="#E5D6FC"></rect>
<g clip-path="url(#clip0_1067_15450)">
<path d="M8.89697 13.9997L12.5428 17.6455L19.8345 10.3539" stroke="#C8A5F9" stroke-width="2.5" stroke-linecap="round" stroke-linejoin="round"></path>
</g>
<defs>
<clipPath id="clip0_1067_15450">
<rect width="17.5" height="17.5" fill="white" transform="translate(5.25 5.25)"></rect>
</clipPath>
</defs>
</symbol></svg>