<svg width="24" height="24" viewBox="0 0 24 24" fill="none" xmlns="http://www.w3.org/2000/svg">
<g clip-path="url(#clip0_1812_20248)">
<path d="M16 2C16.183 2 16.355 2.05 16.502 2.135L16.535 2.155C16.815 2.332 17 2.645 17 3V4H18C18.7652 3.99996 19.5015 4.29233 20.0583 4.81728C20.615 5.34224 20.9501 6.06011 20.995 6.824L21 7V19C21 19.7652 20.7077 20.5015 20.1827 21.0583C19.6578 21.615 18.9399 21.9501 18.176 21.995L18 22H6C5.23479 22 4.49849 21.7077 3.94174 21.1827C3.38499 20.6578 3.04989 19.9399 3.005 19.176L3 19V7C2.99996 6.23479 3.29233 5.49849 3.81728 4.94174C4.34224 4.38499 5.06011 4.04989 5.824 4.005L6 4H7V3C6.99999 2.82173 7.04764 2.64669 7.13802 2.49302C7.22839 2.33936 7.3582 2.21264 7.514 2.126L7.607 2.08L7.673 2.055L7.773 2.026L7.88 2.007L8 2C8.05533 2 8.109 2.00433 8.161 2.013L8.283 2.042L8.323 2.054L8.383 2.077C8.711 2.212 8.951 2.517 8.993 2.883L9 3V4H15V3C15 2.73478 15.1054 2.48043 15.2929 2.29289C15.4804 2.10536 15.7348 2 16 2ZM19 9H5V18.625C5 19.33 5.386 19.911 5.883 19.991L6 20H18C18.513 20 18.936 19.47 18.993 18.785L19 18.625V9Z" fill="#29252B"/>
<path d="M9.01691 13.0009C9.01691 13.2661 8.91156 13.5205 8.72402 13.708C8.53648 13.8955 8.28213 14.0009 8.01691 14.0009C7.88185 14.0073 7.74689 13.9862 7.62019 13.939C7.49349 13.8918 7.37767 13.8194 7.27972 13.7262C7.18176 13.633 7.10371 13.5209 7.05026 13.3967C6.99682 13.2725 6.96909 13.1387 6.96875 13.0035C6.96842 12.8683 6.99547 12.7344 7.0483 12.6099C7.10112 12.4855 7.17861 12.373 7.2761 12.2793C7.37359 12.1856 7.48904 12.1126 7.61551 12.0648C7.74197 12.0169 7.87682 11.9952 8.01191 12.0009C8.56891 12.0009 9.01691 12.4489 9.01691 13.0009Z" fill="#29252B"/>
<path d="M13.0169 13.0009C13.0169 13.2661 12.9116 13.5205 12.724 13.708C12.5365 13.8955 12.2821 14.0009 12.0169 14.0009C11.8818 14.0073 11.7469 13.9862 11.6202 13.939C11.4935 13.8918 11.3777 13.8194 11.2797 13.7262C11.1818 13.633 11.1037 13.5209 11.0503 13.3967C10.9968 13.2725 10.9691 13.1387 10.9688 13.0035C10.9684 12.8683 10.9955 12.7344 11.0483 12.6099C11.1011 12.4855 11.1786 12.373 11.2761 12.2793C11.3736 12.1856 11.489 12.1126 11.6155 12.0648C11.742 12.0169 11.8768 11.9952 12.0119 12.0009C12.5689 12.0009 13.0169 12.4489 13.0169 13.0009Z" fill="#29252B"/>
<path d="M17.0208 13.0009C17.0208 13.2661 16.9155 13.5205 16.7279 13.708C16.5404 13.8955 16.286 14.0009 16.0208 14.0009C15.8858 14.0073 15.7508 13.9862 15.6241 13.939C15.4974 13.8918 15.3816 13.8194 15.2836 13.7262C15.1857 13.633 15.1076 13.5209 15.0542 13.3967C15.0007 13.2725 14.973 13.1387 14.9727 13.0035C14.9723 12.8683 14.9994 12.7344 15.0522 12.6099C15.105 12.4855 15.1825 12.373 15.28 12.2793C15.3775 12.1856 15.493 12.1126 15.6194 12.0648C15.7459 12.0169 15.8807 11.9952 16.0158 12.0009C16.5728 12.0009 17.0208 12.4489 17.0208 13.0009Z" fill="#29252B"/>
<path d="M12.0208 15.0009C12.286 15.0009 12.5404 15.1062 12.7279 15.2938C12.9155 15.4813 13.0208 15.7357 13.0208 16.0009C13.0208 16.2661 12.9155 16.5205 12.7279 16.708C12.5404 16.8955 12.286 17.0009 12.0208 17.0009C11.8858 17.0073 11.7508 16.9862 11.6241 16.939C11.4974 16.8918 11.3816 16.8194 11.2836 16.7262C11.1857 16.633 11.1076 16.5209 11.0542 16.3967C11.0007 16.2725 10.973 16.1387 10.9727 16.0035C10.9723 15.8683 10.9994 15.7344 11.0522 15.6099C11.105 15.4855 11.1825 15.373 11.28 15.2793C11.3775 15.1856 11.493 15.1126 11.6194 15.0648C11.7459 15.0169 11.8807 14.9952 12.0158 15.0009H12.0208Z" fill="#29252B"/>
<path d="M9.01691 16.0009C9.01691 16.2661 8.91156 16.5205 8.72402 16.708C8.53648 16.8955 8.28213 17.0009 8.01691 17.0009C7.88185 17.0073 7.74689 16.9862 7.62019 16.939C7.49349 16.8918 7.37767 16.8194 7.27972 16.7262C7.18176 16.633 7.10371 16.5209 7.05026 16.3967C6.99682 16.2725 6.96909 16.1387 6.96875 16.0035C6.96842 15.8683 6.99547 15.7344 7.0483 15.6099C7.10112 15.4855 7.17861 15.373 7.2761 15.2793C7.37359 15.1856 7.48904 15.1126 7.61551 15.0648C7.74197 15.0169 7.87682 14.9952 8.01191 15.0009C8.56891 15.0009 9.01691 15.4489 9.01691 16.0009Z" fill="#29252B"/>
</g>
<defs>
<clipPath id="clip0_1812_20248">
<rect width="24" height="24" fill="white"/>
</clipPath>
</defs>
</svg>
