<svg width="100" height="101" viewBox="0 0 100 101" fill="none" xmlns="http://www.w3.org/2000/svg">
<g style="mix-blend-mode:luminosity" opacity="0.3">
<path d="M77.0706 69.4648L77.6788 43.2956C77.3632 40.4552 77.9762 35.7117 72.6724 34.423C67.8582 33.2531 62.9177 39.5315 62.9177 39.5315L53.0884 22.9894C50.7213 19.3894 46.2447 19.8227 44.5406 20.8628C42.1104 22.3462 41.4536 25.0368 41.4536 25.0368C41.4536 25.0368 41.7929 25.0369 39.9399 22.3513C38.087 19.6658 34.2117 19.1279 31.3706 20.862C27.6134 23.1554 27.8062 28.0398 29.4907 30.8718C29.3314 30.6997 27.2532 29.6867 23.8999 31.531C20.9702 33.1423 20.5563 37.7077 21.6793 40.198C22.8024 42.6882 23.1186 43.3474 23.1186 43.3474C23.1186 43.3474 20.4909 42.6784 17.9692 44.3728C15.6061 45.9607 14.6969 49.866 16.5551 53.7722C16.5551 53.7722 20.3602 62.2195 23.4363 67.8835C26.5125 73.5476 31.2977 81.1648 31.2977 81.1648C39.9402 94.6902 56.3278 96.4835 66.3025 90.4243C73.1037 86.2927 77.7184 77.5619 77.0706 69.4648Z" fill="url(#paint0_linear_2785_8228)"/>
<path d="M77.0706 69.4648L77.6788 43.2956C77.3632 40.4552 77.9762 35.7117 72.6724 34.423C67.8582 33.2531 62.9177 39.5315 62.9177 39.5315L53.0884 22.9894C50.7213 19.3894 46.2447 19.8227 44.5406 20.8628C42.1104 22.3462 41.4536 25.0368 41.4536 25.0368C41.4536 25.0368 41.7929 25.0369 39.9399 22.3513C38.087 19.6658 34.2117 19.1279 31.3706 20.862C27.6134 23.1554 27.8062 28.0398 29.4907 30.8718C29.3314 30.6997 27.2532 29.6867 23.8999 31.531C20.9702 33.1423 20.5563 37.7077 21.6793 40.198C22.8024 42.6882 23.1186 43.3474 23.1186 43.3474C23.1186 43.3474 20.4909 42.6784 17.9692 44.3728C15.6061 45.9607 14.6969 49.866 16.5551 53.7722C16.5551 53.7722 20.3602 62.2195 23.4363 67.8835C26.5125 73.5476 31.2977 81.1648 31.2977 81.1648C39.9402 94.6902 56.3278 96.4835 66.3025 90.4243C73.1037 86.2927 77.7184 77.5619 77.0706 69.4648Z" fill="url(#paint1_radial_2785_8228)"/>
<path d="M77.0706 69.4648L77.6788 43.2956C77.3632 40.4552 77.9762 35.7117 72.6724 34.423C67.8582 33.2531 62.9177 39.5315 62.9177 39.5315L53.0884 22.9894C50.7213 19.3894 46.2447 19.8227 44.5406 20.8628C42.1104 22.3462 41.4536 25.0368 41.4536 25.0368C41.4536 25.0368 41.7929 25.0369 39.9399 22.3513C38.087 19.6658 34.2117 19.1279 31.3706 20.862C27.6134 23.1554 27.8062 28.0398 29.4907 30.8718C29.3314 30.6997 27.2532 29.6867 23.8999 31.531C20.9702 33.1423 20.5563 37.7077 21.6793 40.198C22.8024 42.6882 23.1186 43.3474 23.1186 43.3474C23.1186 43.3474 20.4909 42.6784 17.9692 44.3728C15.6061 45.9607 14.6969 49.866 16.5551 53.7722C16.5551 53.7722 20.3602 62.2195 23.4363 67.8835C26.5125 73.5476 31.2977 81.1648 31.2977 81.1648C39.9402 94.6902 56.3278 96.4835 66.3025 90.4243C73.1037 86.2927 77.7184 77.5619 77.0706 69.4648Z" fill="url(#paint2_radial_2785_8228)"/>
<path d="M77.0706 69.4648L77.6788 43.2956C77.3632 40.4552 77.9762 35.7117 72.6724 34.423C67.8582 33.2531 62.9177 39.5315 62.9177 39.5315L53.0884 22.9894C50.7213 19.3894 46.2447 19.8227 44.5406 20.8628C42.1104 22.3462 41.4536 25.0368 41.4536 25.0368C41.4536 25.0368 41.7929 25.0369 39.9399 22.3513C38.087 19.6658 34.2117 19.1279 31.3706 20.862C27.6134 23.1554 27.8062 28.0398 29.4907 30.8718C29.3314 30.6997 27.2532 29.6867 23.8999 31.531C20.9702 33.1423 20.5563 37.7077 21.6793 40.198C22.8024 42.6882 23.1186 43.3474 23.1186 43.3474C23.1186 43.3474 20.4909 42.6784 17.9692 44.3728C15.6061 45.9607 14.6969 49.866 16.5551 53.7722C16.5551 53.7722 20.3602 62.2195 23.4363 67.8835C26.5125 73.5476 31.2977 81.1648 31.2977 81.1648C39.9402 94.6902 56.3278 96.4835 66.3025 90.4243C73.1037 86.2927 77.7184 77.5619 77.0706 69.4648Z" fill="url(#paint3_radial_2785_8228)"/>
<path d="M24.1435 31.3626C20.6792 33.1531 20.7063 38.0303 21.5796 40.0295C22.453 42.0286 23.1319 43.3423 23.1319 43.3423C23.1319 43.3423 25.4791 43.4758 27.1484 45.9347C27.1484 45.9347 27.6021 46.4429 30.7883 53.1379C30.7883 53.1379 39.687 60.0099 40.8609 59.0433C44.1348 56.3476 41.6968 52.0095 41.3596 51.0627C40.2861 48.0484 35.4331 37.614 33.1566 34.1211C30.88 30.6283 28.0245 29.3567 24.1435 31.3626Z" fill="url(#paint4_radial_2785_8228)"/>
<path d="M24.1435 31.3626C20.6792 33.1531 20.7063 38.0303 21.5796 40.0295C22.453 42.0286 23.1319 43.3423 23.1319 43.3423C23.1319 43.3423 25.4791 43.4758 27.1484 45.9347C27.1484 45.9347 27.6021 46.4429 30.7883 53.1379C30.7883 53.1379 39.687 60.0099 40.8609 59.0433C44.1348 56.3476 41.6968 52.0095 41.3596 51.0627C40.2861 48.0484 35.4331 37.614 33.1566 34.1211C30.88 30.6283 28.0245 29.3567 24.1435 31.3626Z" fill="url(#paint5_radial_2785_8228)"/>
<path d="M24.1435 31.3626C20.6792 33.1531 20.7063 38.0303 21.5796 40.0295C22.453 42.0286 23.1319 43.3423 23.1319 43.3423C23.1319 43.3423 25.4791 43.4758 27.1484 45.9347C27.1484 45.9347 27.6021 46.4429 30.7883 53.1379C30.7883 53.1379 39.687 60.0099 40.8609 59.0433C44.1348 56.3476 41.6968 52.0095 41.3596 51.0627C40.2861 48.0484 35.4331 37.614 33.1566 34.1211C30.88 30.6283 28.0245 29.3567 24.1435 31.3626Z" fill="url(#paint6_radial_2785_8228)"/>
<path d="M31.5196 20.7534C27.8819 22.6371 27.9591 27.4528 28.8325 29.4519C29.7058 31.4511 29.4656 30.7489 29.4656 30.7489C29.4656 30.7489 32.1511 31.8475 34.1286 35.7782C34.1286 35.7782 34.5557 36.6271 37.7419 43.3221C37.7419 43.3221 47.063 49.4007 48.237 48.4341C51.5108 45.7384 49.0728 41.4004 48.7356 40.4535C47.6621 37.4392 43.5104 28.4948 41.1122 24.0576C38.714 19.6203 35.1583 18.8691 31.5196 20.7534Z" fill="url(#paint7_radial_2785_8228)"/>
<path d="M31.5196 20.7534C27.8819 22.6371 27.9591 27.4528 28.8325 29.4519C29.7058 31.4511 29.4656 30.7489 29.4656 30.7489C29.4656 30.7489 32.1511 31.8475 34.1286 35.7782C34.1286 35.7782 34.5557 36.6271 37.7419 43.3221C37.7419 43.3221 47.063 49.4007 48.237 48.4341C51.5108 45.7384 49.0728 41.4004 48.7356 40.4535C47.6621 37.4392 43.5104 28.4948 41.1122 24.0576C38.714 19.6203 35.1583 18.8691 31.5196 20.7534Z" fill="url(#paint8_radial_2785_8228)"/>
<path d="M31.5196 20.7534C27.8819 22.6371 27.9591 27.4528 28.8325 29.4519C29.7058 31.4511 29.4656 30.7489 29.4656 30.7489C29.4656 30.7489 32.1511 31.8475 34.1286 35.7782C34.1286 35.7782 34.5557 36.6271 37.7419 43.3221C37.7419 43.3221 47.063 49.4007 48.237 48.4341C51.5108 45.7384 49.0728 41.4004 48.7356 40.4535C47.6621 37.4392 43.5104 28.4948 41.1122 24.0576C38.714 19.6203 35.1583 18.8691 31.5196 20.7534Z" fill="url(#paint9_radial_2785_8228)"/>
<path d="M44.9713 20.6189C41.2349 22.2983 40.2683 28.1246 41.2586 30.0685C42.2489 32.0124 42.7261 31.7748 42.7261 31.7748C42.7261 31.7748 45.472 32.7123 47.679 36.5189C47.679 36.5189 48.1556 37.341 51.733 43.8354C51.733 43.8354 61.3979 49.351 62.5126 48.3165C65.6209 45.4316 62.9301 41.2456 62.5374 40.3204C61.2871 37.375 56.9792 31.5319 54.7352 25.7192C52.4912 19.9065 47.6747 19.4038 44.9713 20.6189Z" fill="#D4A68A"/>
<path d="M91.5661 68.6848C91.0144 58.9273 90.6443 55.0621 90.9656 50.3322C91.2869 45.6024 93.6951 35.6217 85.9097 34.5696C78.5737 33.5783 77.6814 41.41 77.6814 41.41C77.6814 41.41 68.9709 27.0852 65.9191 23.9581C62.8674 20.8309 59.6091 21.0992 57.1545 22.5974C54.6999 24.0957 54.3713 27.3042 54.3713 27.3042C54.3713 27.3042 52.8332 25.6196 51.0021 23.9595C49.1711 22.2993 45.924 21.7134 43.4094 23.2026C41.37 24.4104 38.7463 27.7925 41.4074 32.187C41.4074 32.187 39.4571 31.7887 37.1838 33.4077C34.6489 35.2131 34.2297 39.4868 35.3771 41.3423C36.5246 43.1978 37.4042 44.4452 37.4042 44.4452C37.4042 44.4452 35.811 43.5729 32.4726 45.8124C30.6424 47.0401 29.0515 51.1328 31.4943 54.8437C33.9372 58.5547 36.5734 61.5351 39.7472 66.2714C42.9211 71.0077 51.3195 84.289 51.3195 84.289C58.2043 93.2734 70.9362 96.7324 81.0111 90.6123C87.8806 86.4392 92.1179 78.4422 91.5661 68.6848Z" fill="url(#paint10_radial_2785_8228)"/>
<path d="M91.5661 68.6848C91.0144 58.9273 90.6443 55.0621 90.9656 50.3322C91.2869 45.6024 93.6951 35.6217 85.9097 34.5696C78.5737 33.5783 77.6814 41.41 77.6814 41.41C77.6814 41.41 68.9709 27.0852 65.9191 23.9581C62.8674 20.8309 59.6091 21.0992 57.1545 22.5974C54.6999 24.0957 54.3713 27.3042 54.3713 27.3042C54.3713 27.3042 52.8332 25.6196 51.0021 23.9595C49.1711 22.2993 45.924 21.7134 43.4094 23.2026C41.37 24.4104 38.7463 27.7925 41.4074 32.187C41.4074 32.187 39.4571 31.7887 37.1838 33.4077C34.6489 35.2131 34.2297 39.4868 35.3771 41.3423C36.5246 43.1978 37.4042 44.4452 37.4042 44.4452C37.4042 44.4452 35.811 43.5729 32.4726 45.8124C30.6424 47.0401 29.0515 51.1328 31.4943 54.8437C33.9372 58.5547 36.5734 61.5351 39.7472 66.2714C42.9211 71.0077 51.3195 84.289 51.3195 84.289C58.2043 93.2734 70.9362 96.7324 81.0111 90.6123C87.8806 86.4392 92.1179 78.4422 91.5661 68.6848Z" fill="url(#paint11_radial_2785_8228)"/>
<path d="M91.5661 68.6848C91.0144 58.9273 90.6443 55.0621 90.9656 50.3322C91.2869 45.6024 93.6951 35.6217 85.9097 34.5696C78.5737 33.5783 77.6814 41.41 77.6814 41.41C77.6814 41.41 68.9709 27.0852 65.9191 23.9581C62.8674 20.8309 59.6091 21.0992 57.1545 22.5974C54.6999 24.0957 54.3713 27.3042 54.3713 27.3042C54.3713 27.3042 52.8332 25.6196 51.0021 23.9595C49.1711 22.2993 45.924 21.7134 43.4094 23.2026C41.37 24.4104 38.7463 27.7925 41.4074 32.187C41.4074 32.187 39.4571 31.7887 37.1838 33.4077C34.6489 35.2131 34.2297 39.4868 35.3771 41.3423C36.5246 43.1978 37.4042 44.4452 37.4042 44.4452C37.4042 44.4452 35.811 43.5729 32.4726 45.8124C30.6424 47.0401 29.0515 51.1328 31.4943 54.8437C33.9372 58.5547 36.5734 61.5351 39.7472 66.2714C42.9211 71.0077 51.3195 84.289 51.3195 84.289C58.2043 93.2734 70.9362 96.7324 81.0111 90.6123C87.8806 86.4392 92.1179 78.4422 91.5661 68.6848Z" fill="url(#paint12_radial_2785_8228)"/>
<path d="M91.5661 68.6848C91.0144 58.9273 90.6443 55.0621 90.9656 50.3322C91.2869 45.6024 93.6951 35.6217 85.9097 34.5696C78.5737 33.5783 77.6814 41.41 77.6814 41.41C77.6814 41.41 68.9709 27.0852 65.9191 23.9581C62.8674 20.8309 59.6091 21.0992 57.1545 22.5974C54.6999 24.0957 54.3713 27.3042 54.3713 27.3042C54.3713 27.3042 52.8332 25.6196 51.0021 23.9595C49.1711 22.2993 45.924 21.7134 43.4094 23.2026C41.37 24.4104 38.7463 27.7925 41.4074 32.187C41.4074 32.187 39.4571 31.7887 37.1838 33.4077C34.6489 35.2131 34.2297 39.4868 35.3771 41.3423C36.5246 43.1978 37.4042 44.4452 37.4042 44.4452C37.4042 44.4452 35.811 43.5729 32.4726 45.8124C30.6424 47.0401 29.0515 51.1328 31.4943 54.8437C33.9372 58.5547 36.5734 61.5351 39.7472 66.2714C42.9211 71.0077 51.3195 84.289 51.3195 84.289C58.2043 93.2734 70.9362 96.7324 81.0111 90.6123C87.8806 86.4392 92.1179 78.4422 91.5661 68.6848Z" fill="url(#paint13_radial_2785_8228)"/>
<path d="M91.5661 68.6848C91.0144 58.9273 90.6443 55.0621 90.9656 50.3322C91.2869 45.6024 93.6951 35.6217 85.9097 34.5696C78.5737 33.5783 77.6814 41.41 77.6814 41.41C77.6814 41.41 68.9709 27.0852 65.9191 23.9581C62.8674 20.8309 59.6091 21.0992 57.1545 22.5974C54.6999 24.0957 54.3713 27.3042 54.3713 27.3042C54.3713 27.3042 52.8332 25.6196 51.0021 23.9595C49.1711 22.2993 45.924 21.7134 43.4094 23.2026C41.37 24.4104 38.7463 27.7925 41.4074 32.187C41.4074 32.187 39.4571 31.7887 37.1838 33.4077C34.6489 35.2131 34.2297 39.4868 35.3771 41.3423C36.5246 43.1978 37.4042 44.4452 37.4042 44.4452C37.4042 44.4452 35.811 43.5729 32.4726 45.8124C30.6424 47.0401 29.0515 51.1328 31.4943 54.8437C33.9372 58.5547 36.5734 61.5351 39.7472 66.2714C42.9211 71.0077 51.3195 84.289 51.3195 84.289C58.2043 93.2734 70.9362 96.7324 81.0111 90.6123C87.8806 86.4392 92.1179 78.4422 91.5661 68.6848Z" fill="url(#paint14_radial_2785_8228)"/>
<path d="M91.5661 68.6848C91.0144 58.9273 90.6443 55.0621 90.9656 50.3322C91.2869 45.6024 93.6951 35.6217 85.9097 34.5696C78.5737 33.5783 77.6814 41.41 77.6814 41.41C77.6814 41.41 68.9709 27.0852 65.9191 23.9581C62.8674 20.8309 59.6091 21.0992 57.1545 22.5974C54.6999 24.0957 54.3713 27.3042 54.3713 27.3042C54.3713 27.3042 52.8332 25.6196 51.0021 23.9595C49.1711 22.2993 45.924 21.7134 43.4094 23.2026C41.37 24.4104 38.7463 27.7925 41.4074 32.187C41.4074 32.187 39.4571 31.7887 37.1838 33.4077C34.6489 35.2131 34.2297 39.4868 35.3771 41.3423C36.5246 43.1978 37.4042 44.4452 37.4042 44.4452C37.4042 44.4452 35.811 43.5729 32.4726 45.8124C30.6424 47.0401 29.0515 51.1328 31.4943 54.8437C33.9372 58.5547 36.5734 61.5351 39.7472 66.2714C42.9211 71.0077 51.3195 84.289 51.3195 84.289C58.2043 93.2734 70.9362 96.7324 81.0111 90.6123C87.8806 86.4392 92.1179 78.4422 91.5661 68.6848Z" fill="url(#paint15_radial_2785_8228)"/>
<path d="M90.9649 50.3337C91.2862 45.6039 93.6943 35.6232 85.9089 34.5711C78.5729 33.5798 77.6807 41.4115 77.6807 41.4115L91.261 63.7324C91.261 59.2944 90.6634 54.7722 90.9649 50.3337Z" fill="url(#paint16_radial_2785_8228)"/>
<path d="M90.9649 50.3337C91.2862 45.6039 93.6943 35.6232 85.9089 34.5711C78.5729 33.5798 77.6807 41.4115 77.6807 41.4115L91.261 63.7324C91.261 59.2944 90.6634 54.7722 90.9649 50.3337Z" fill="url(#paint17_radial_2785_8228)"/>
<path d="M90.9649 50.3337C91.2862 45.6039 93.6943 35.6232 85.9089 34.5711C78.5729 33.5798 77.6807 41.4115 77.6807 41.4115L91.261 63.7324C91.261 59.2944 90.6634 54.7722 90.9649 50.3337Z" fill="url(#paint18_radial_2785_8228)"/>
<path d="M41.4064 32.1888C41.4064 32.1888 39.4561 31.7905 37.1828 33.4095C34.6479 35.2149 34.2287 39.4886 35.3762 41.3441C36.5236 43.1996 37.4041 44.447 37.4041 44.447C37.4041 44.447 39.4031 44.447 41.4035 46.645C41.4035 46.645 45.3113 51.3044 49.4128 57.4812C51.2332 60.2225 56.1511 58.6042 57.1765 57.4812C60.036 54.3494 57.9861 49.6306 57.5183 48.741C56.0291 45.9089 46.4707 34.8756 45.8484 34.1658C44.1152 32.1888 41.4064 32.1888 41.4064 32.1888Z" fill="url(#paint19_radial_2785_8228)"/>
<path d="M41.4064 32.1888C41.4064 32.1888 39.4561 31.7905 37.1828 33.4095C34.6479 35.2149 34.2287 39.4886 35.3762 41.3441C36.5236 43.1996 37.4041 44.447 37.4041 44.447C37.4041 44.447 39.4031 44.447 41.4035 46.645C41.4035 46.645 45.3113 51.3044 49.4128 57.4812C51.2332 60.2225 56.1511 58.6042 57.1765 57.4812C60.036 54.3494 57.9861 49.6306 57.5183 48.741C56.0291 45.9089 46.4707 34.8756 45.8484 34.1658C44.1152 32.1888 41.4064 32.1888 41.4064 32.1888Z" fill="url(#paint20_radial_2785_8228)"/>
<path d="M41.4064 32.1888C41.4064 32.1888 39.4561 31.7905 37.1828 33.4095C34.6479 35.2149 34.2287 39.4886 35.3762 41.3441C36.5236 43.1996 37.4041 44.447 37.4041 44.447C37.4041 44.447 39.4031 44.447 41.4035 46.645C41.4035 46.645 45.3113 51.3044 49.4128 57.4812C51.2332 60.2225 56.1511 58.6042 57.1765 57.4812C60.036 54.3494 57.9861 49.6306 57.5183 48.741C56.0291 45.9089 46.4707 34.8756 45.8484 34.1658C44.1152 32.1888 41.4064 32.1888 41.4064 32.1888Z" fill="url(#paint21_linear_2785_8228)"/>
<path d="M54.3708 27.3063C54.3708 27.3063 52.8327 25.6217 51.0017 23.9616C49.1706 22.3014 45.9235 21.7155 43.4089 23.2047C41.3695 24.4125 38.7458 27.7946 41.4069 32.1891C41.4069 32.1891 43.9485 32.1891 45.6086 33.8975C45.6086 33.8975 52.8054 41.796 57.3274 48.6436C60.1624 52.9366 68.8617 50.3285 67.7278 45.2012C67.1532 42.603 55.2766 28.502 54.3708 27.3063Z" fill="url(#paint22_radial_2785_8228)"/>
<path d="M54.3708 27.3063C54.3708 27.3063 52.8327 25.6217 51.0017 23.9616C49.1706 22.3014 45.9235 21.7155 43.4089 23.2047C41.3695 24.4125 38.7458 27.7946 41.4069 32.1891C41.4069 32.1891 43.9485 32.1891 45.6086 33.8975C45.6086 33.8975 52.8054 41.796 57.3274 48.6436C60.1624 52.9366 68.8617 50.3285 67.7278 45.2012C67.1532 42.603 55.2766 28.502 54.3708 27.3063Z" fill="url(#paint23_radial_2785_8228)"/>
<path d="M54.3708 27.3063C54.3708 27.3063 52.8327 25.6217 51.0017 23.9616C49.1706 22.3014 45.9235 21.7155 43.4089 23.2047C41.3695 24.4125 38.7458 27.7946 41.4069 32.1891C41.4069 32.1891 43.9485 32.1891 45.6086 33.8975C45.6086 33.8975 52.8054 41.796 57.3274 48.6436C60.1624 52.9366 68.8617 50.3285 67.7278 45.2012C67.1532 42.603 55.2766 28.502 54.3708 27.3063Z" fill="url(#paint24_linear_2785_8228)"/>
<path d="M80.9082 46.8623C79.3945 43.957 68.9697 27.0872 65.918 23.96C62.8662 20.8329 59.6079 21.1011 57.1533 22.5994C54.6987 24.0976 54.3701 27.3062 54.3701 27.3062C56.3582 29.7761 64.4262 39.7377 68.1396 44.9824C72.9657 51.7985 80.9082 46.8623 80.9082 46.8623Z" fill="url(#paint25_radial_2785_8228)"/>
<path d="M80.9082 46.8623C79.3945 43.957 68.9697 27.0872 65.918 23.96C62.8662 20.8329 59.6079 21.1011 57.1533 22.5994C54.6987 24.0976 54.3701 27.3062 54.3701 27.3062C56.3582 29.7761 64.4262 39.7377 68.1396 44.9824C72.9657 51.7985 80.9082 46.8623 80.9082 46.8623Z" fill="url(#paint26_radial_2785_8228)"/>
<path d="M80.9082 46.8623C79.3945 43.957 68.9697 27.0872 65.918 23.96C62.8662 20.8329 59.6079 21.1011 57.1533 22.5994C54.6987 24.0976 54.3701 27.3062 54.3701 27.3062C56.3582 29.7761 64.4262 39.7377 68.1396 44.9824C72.9657 51.7985 80.9082 46.8623 80.9082 46.8623Z" fill="url(#paint27_linear_2785_8228)"/>
<path d="M80.9082 46.8623C79.3945 43.957 68.9697 27.0872 65.918 23.96C62.8662 20.8329 59.6079 21.1011 57.1533 22.5994C54.6987 24.0976 54.3701 27.3062 54.3701 27.3062C56.3582 29.7761 64.4262 39.7377 68.1396 44.9824C72.9657 51.7985 80.9082 46.8623 80.9082 46.8623Z" fill="url(#paint28_radial_2785_8228)"/>
<path d="M20.9027 24.9005L15.1798 22.5006C14.2875 22.1313 14.0414 20.9929 14.7183 20.2852L17.7028 17.1161C18.3489 16.4084 19.5181 16.593 19.9489 17.4546L22.6873 23.0236C23.2103 24.162 22.0719 25.3928 20.9027 24.9005Z" fill="#1A80EA"/>
<path d="M20.9027 24.9005L15.1798 22.5006C14.2875 22.1313 14.0414 20.9929 14.7183 20.2852L17.7028 17.1161C18.3489 16.4084 19.5181 16.593 19.9489 17.4546L22.6873 23.0236C23.2103 24.162 22.0719 25.3928 20.9027 24.9005Z" fill="url(#paint29_linear_2785_8228)"/>
<path d="M20.9027 24.9005L15.1798 22.5006C14.2875 22.1313 14.0414 20.9929 14.7183 20.2852L17.7028 17.1161C18.3489 16.4084 19.5181 16.593 19.9489 17.4546L22.6873 23.0236C23.2103 24.162 22.0719 25.3928 20.9027 24.9005Z" fill="url(#paint30_linear_2785_8228)"/>
<path d="M20.9027 24.9005L15.1798 22.5006C14.2875 22.1313 14.0414 20.9929 14.7183 20.2852L17.7028 17.1161C18.3489 16.4084 19.5181 16.593 19.9489 17.4546L22.6873 23.0236C23.2103 24.162 22.0719 25.3928 20.9027 24.9005Z" fill="url(#paint31_linear_2785_8228)"/>
<path d="M28.5164 19.6816L24.8801 14.759C24.3138 13.9899 24.6715 12.8823 25.5657 12.6054L29.6192 11.344C30.5134 11.0671 31.4075 11.8055 31.3479 12.7592L30.9306 18.9432C30.8114 20.2046 29.2615 20.6969 28.5164 19.6816Z" fill="#1A80EA"/>
<path d="M28.5164 19.6816L24.8801 14.759C24.3138 13.9899 24.6715 12.8823 25.5657 12.6054L29.6192 11.344C30.5134 11.0671 31.4075 11.8055 31.3479 12.7592L30.9306 18.9432C30.8114 20.2046 29.2615 20.6969 28.5164 19.6816Z" fill="url(#paint32_linear_2785_8228)"/>
<path d="M28.5164 19.6816L24.8801 14.759C24.3138 13.9899 24.6715 12.8823 25.5657 12.6054L29.6192 11.344C30.5134 11.0671 31.4075 11.8055 31.3479 12.7592L30.9306 18.9432C30.8114 20.2046 29.2615 20.6969 28.5164 19.6816Z" fill="url(#paint33_linear_2785_8228)"/>
<path d="M28.5164 19.6816L24.8801 14.759C24.3138 13.9899 24.6715 12.8823 25.5657 12.6054L29.6192 11.344C30.5134 11.0671 31.4075 11.8055 31.3479 12.7592L30.9306 18.9432C30.8114 20.2046 29.2615 20.6969 28.5164 19.6816Z" fill="url(#paint34_linear_2785_8228)"/>
<path d="M17.6563 33.1782L11.4655 33.9845C10.506 34.1085 9.73211 33.2402 9.94879 32.2789L10.9703 27.9994C11.1869 27.069 12.3013 26.6349 13.1061 27.1621L18.2753 30.6353C19.3278 31.3796 18.9254 33.0232 17.6563 33.1782Z" fill="#1A80EA"/>
<path d="M17.6563 33.1782L11.4655 33.9845C10.506 34.1085 9.73211 33.2402 9.94879 32.2789L10.9703 27.9994C11.1869 27.069 12.3013 26.6349 13.1061 27.1621L18.2753 30.6353C19.3278 31.3796 18.9254 33.0232 17.6563 33.1782Z" fill="url(#paint35_linear_2785_8228)"/>
<path d="M17.6563 33.1782L11.4655 33.9845C10.506 34.1085 9.73211 33.2402 9.94879 32.2789L10.9703 27.9994C11.1869 27.069 12.3013 26.6349 13.1061 27.1621L18.2753 30.6353C19.3278 31.3796 18.9254 33.0232 17.6563 33.1782Z" fill="url(#paint36_linear_2785_8228)"/>
<path d="M17.6563 33.1782L11.4655 33.9845C10.506 34.1085 9.73211 33.2402 9.94879 32.2789L10.9703 27.9994C11.1869 27.069 12.3013 26.6349 13.1061 27.1621L18.2753 30.6353C19.3278 31.3796 18.9254 33.0232 17.6563 33.1782Z" fill="url(#paint37_linear_2785_8228)"/>
</g>
<defs>
<linearGradient id="paint0_linear_2785_8228" x1="57.4204" y1="95.4238" x2="38.6704" y2="49.3301" gradientUnits="userSpaceOnUse">
<stop offset="0.122196" stop-color="#99607B"/>
<stop offset="1" stop-color="#B98481"/>
</linearGradient>
<radialGradient id="paint1_radial_2785_8228" cx="0" cy="0" r="1" gradientUnits="userSpaceOnUse" gradientTransform="translate(23.6313 46.9863) rotate(76.185) scale(12.269 10.3165)">
<stop offset="0.126711" stop-color="#D5A797"/>
<stop offset="1" stop-color="#B98280" stop-opacity="0"/>
</radialGradient>
<radialGradient id="paint2_radial_2785_8228" cx="0" cy="0" r="1" gradientUnits="userSpaceOnUse" gradientTransform="translate(51.1704 59.0957) rotate(59.3715) scale(40.2532 23.2112)">
<stop offset="0.505939" stop-color="#9B635A"/>
<stop offset="1" stop-color="#9B635A" stop-opacity="0"/>
</radialGradient>
<radialGradient id="paint3_radial_2785_8228" cx="0" cy="0" r="1" gradientUnits="userSpaceOnUse" gradientTransform="translate(74.7056 38.002) rotate(96.3402) scale(8.84315 7.43582)">
<stop stop-color="#B78281"/>
<stop offset="1" stop-color="#B78281" stop-opacity="0"/>
</radialGradient>
<radialGradient id="paint4_radial_2785_8228" cx="0" cy="0" r="1" gradientUnits="userSpaceOnUse" gradientTransform="translate(28.9033 34.677) rotate(55.6197) scale(13.4893 11.6578)">
<stop offset="0.186792" stop-color="#DBAF9C"/>
<stop offset="0.82956" stop-color="#B17B76"/>
</radialGradient>
<radialGradient id="paint5_radial_2785_8228" cx="0" cy="0" r="1" gradientUnits="userSpaceOnUse" gradientTransform="translate(36.5205 42.6848) rotate(88.977) scale(10.9392 9.82883)">
<stop offset="0.0267379" stop-color="#8C5040"/>
<stop offset="1" stop-color="#A7716E" stop-opacity="0"/>
</radialGradient>
<radialGradient id="paint6_radial_2785_8228" cx="0" cy="0" r="1" gradientUnits="userSpaceOnUse" gradientTransform="translate(26.9502 49.7161) rotate(60.8324) scale(28.8541 11.6775)">
<stop offset="0.161122" stop-color="#8C5040"/>
<stop offset="0.344055" stop-color="#B37E76" stop-opacity="0"/>
</radialGradient>
<radialGradient id="paint7_radial_2785_8228" cx="0" cy="0" r="1" gradientUnits="userSpaceOnUse" gradientTransform="translate(37.1121 23.7444) rotate(56.3099) scale(13.38 11.5659)">
<stop offset="0.186792" stop-color="#EDC3AD"/>
<stop offset="0.82956" stop-color="#BB8783"/>
</radialGradient>
<radialGradient id="paint8_radial_2785_8228" cx="0" cy="0" r="1" gradientUnits="userSpaceOnUse" gradientTransform="translate(40.6277 32.7288) rotate(65.7723) scale(8.56708 5.73255)">
<stop offset="0.0267379" stop-color="#995F53"/>
<stop offset="1" stop-color="#B58176" stop-opacity="0"/>
</radialGradient>
<radialGradient id="paint9_radial_2785_8228" cx="0" cy="0" r="1" gradientUnits="userSpaceOnUse" gradientTransform="translate(32.0339 36.8303) rotate(62.0302) scale(32.0658 12.9865)">
<stop offset="0.161122" stop-color="#8C5447"/>
<stop offset="0.290305" stop-color="#C7968D" stop-opacity="0"/>
</radialGradient>
<radialGradient id="paint10_radial_2785_8228" cx="0" cy="0" r="1" gradientUnits="userSpaceOnUse" gradientTransform="translate(69.9199 47.7637) rotate(57.1596) scale(102.284 64.2505)">
<stop offset="0.174074" stop-color="#FFD7BA"/>
<stop offset="0.456741" stop-color="#F0BCAE"/>
<stop offset="0.730967" stop-color="#BC7E96"/>
</radialGradient>
<radialGradient id="paint11_radial_2785_8228" cx="0" cy="0" r="1" gradientUnits="userSpaceOnUse" gradientTransform="translate(87.791 53.5254) rotate(90) scale(23.4375 5.76172)">
<stop stop-color="#FFE3C8"/>
<stop offset="1" stop-color="#FFE3C8" stop-opacity="0"/>
</radialGradient>
<radialGradient id="paint12_radial_2785_8228" cx="0" cy="0" r="1" gradientUnits="userSpaceOnUse" gradientTransform="translate(41.9902 52.8418) rotate(53.6606) scale(21.0947 4.68224)">
<stop stop-color="#FFD7BE"/>
<stop offset="1" stop-color="#FFD7BE" stop-opacity="0"/>
</radialGradient>
<radialGradient id="paint13_radial_2785_8228" cx="0" cy="0" r="1" gradientUnits="userSpaceOnUse" gradientTransform="translate(58.4941 49.0332) rotate(53.3659) scale(9.49227 5.11787)">
<stop stop-color="#F3B297"/>
<stop offset="1" stop-color="#FBD4B9" stop-opacity="0"/>
</radialGradient>
<radialGradient id="paint14_radial_2785_8228" cx="0" cy="0" r="1" gradientUnits="userSpaceOnUse" gradientTransform="translate(45.7012 28.623) rotate(72.7725) scale(105.515 89.7159)">
<stop offset="0.63763" stop-color="#C98D9B" stop-opacity="0"/>
<stop offset="0.703717" stop-color="#C98D9B"/>
</radialGradient>
<radialGradient id="paint15_radial_2785_8228" cx="0" cy="0" r="1" gradientUnits="userSpaceOnUse" gradientTransform="translate(41.0137 80.9668) rotate(47.7621) scale(63.0499 19.9844)">
<stop offset="0.332283" stop-color="#C48692"/>
<stop offset="1" stop-color="#F6C5B6" stop-opacity="0"/>
</radialGradient>
<radialGradient id="paint16_radial_2785_8228" cx="0" cy="0" r="1" gradientUnits="userSpaceOnUse" gradientTransform="translate(88.0872 44.6406) rotate(87.7382) scale(88.1546 20.1139)">
<stop offset="0.0491183" stop-color="#FFE4C9"/>
<stop offset="0.363874" stop-color="#E29F81"/>
<stop offset="0.510416" stop-color="#BC7352"/>
</radialGradient>
<radialGradient id="paint17_radial_2785_8228" cx="0" cy="0" r="1" gradientUnits="userSpaceOnUse" gradientTransform="translate(85.7434 59.4844) rotate(64.3196) scale(13.4366 7.11286)">
<stop offset="0.52378" stop-color="#FFD7BA"/>
<stop offset="1" stop-color="#FFD7BA" stop-opacity="0"/>
</radialGradient>
<radialGradient id="paint18_radial_2785_8228" cx="0" cy="0" r="1" gradientUnits="userSpaceOnUse" gradientTransform="translate(87.6965 54.7969) rotate(89.0179) scale(17.0924 3.07357)">
<stop offset="0.241007" stop-color="#FFE0C4"/>
<stop offset="1" stop-color="#FFE0C4" stop-opacity="0"/>
</radialGradient>
<radialGradient id="paint19_radial_2785_8228" cx="0" cy="0" r="1" gradientUnits="userSpaceOnUse" gradientTransform="translate(51.366 43.2722) rotate(52.9945) scale(132.071 18.9457)">
<stop offset="0.117759" stop-color="#FFD5BA"/>
<stop offset="0.392418" stop-color="#F5BBA4"/>
<stop offset="0.602637" stop-color="#EBA48A"/>
</radialGradient>
<radialGradient id="paint20_radial_2785_8228" cx="0" cy="0" r="1" gradientUnits="userSpaceOnUse" gradientTransform="translate(42.7722 50.4988) rotate(52.1555) scale(32.1531 8.26998)">
<stop stop-color="#A9684D"/>
<stop offset="0.498616" stop-color="#E2A38B" stop-opacity="0"/>
</radialGradient>
<linearGradient id="paint21_linear_2785_8228" x1="60.5457" y1="56.5535" x2="51.5352" y2="51.4264" gradientUnits="userSpaceOnUse">
<stop offset="0.147947" stop-color="#FCD1B8"/>
<stop offset="1" stop-color="#FCD1B8" stop-opacity="0"/>
</linearGradient>
<radialGradient id="paint22_radial_2785_8228" cx="0" cy="0" r="1" gradientUnits="userSpaceOnUse" gradientTransform="translate(57.8436 34.5393) rotate(54.4286) scale(132.238 20.1086)">
<stop offset="0.0126503" stop-color="#FFD7BB"/>
<stop offset="0.296062" stop-color="#F0B59C"/>
<stop offset="0.602637" stop-color="#E8A387"/>
</radialGradient>
<radialGradient id="paint23_radial_2785_8228" cx="0" cy="0" r="1" gradientUnits="userSpaceOnUse" gradientTransform="translate(46.7805 37.5107) rotate(50.0937) scale(49.7769 6.95416)">
<stop offset="0.101813" stop-color="#C58064"/>
<stop offset="0.540918" stop-color="#DF9E82" stop-opacity="0"/>
</radialGradient>
<linearGradient id="paint24_linear_2785_8228" x1="69.3391" y1="50.8042" x2="58.2063" y2="41.124" gradientUnits="userSpaceOnUse">
<stop offset="0.28671" stop-color="#FFD7BA"/>
<stop offset="1" stop-color="#FFD7BA" stop-opacity="0"/>
</linearGradient>
<radialGradient id="paint25_radial_2785_8228" cx="0" cy="0" r="1" gradientUnits="userSpaceOnUse" gradientTransform="translate(71.2891 33.1172) rotate(55.5194) scale(82.4545 20.0236)">
<stop offset="0.118483" stop-color="#FFD7BA"/>
<stop offset="0.402194" stop-color="#F1AC8F"/>
<stop offset="1" stop-color="#CF876B"/>
</radialGradient>
<radialGradient id="paint26_radial_2785_8228" cx="0" cy="0" r="1" gradientUnits="userSpaceOnUse" gradientTransform="translate(60.8398 36.7305) rotate(52.0523) scale(40.4954 5.67514)">
<stop stop-color="#D08366"/>
<stop offset="0.609651" stop-color="#D08366" stop-opacity="0"/>
</radialGradient>
<linearGradient id="paint27_linear_2785_8228" x1="78.3177" y1="50.0658" x2="70.1558" y2="38.7804" gradientUnits="userSpaceOnUse">
<stop offset="0.487226" stop-color="#FFD7BA"/>
<stop offset="1" stop-color="#FFD7BA" stop-opacity="0"/>
</linearGradient>
<radialGradient id="paint28_radial_2785_8228" cx="0" cy="0" r="1" gradientUnits="userSpaceOnUse" gradientTransform="translate(69.3359 37.0234) rotate(53.0382) scale(73.086 33.1323)">
<stop offset="0.239356" stop-color="#CF896C" stop-opacity="0"/>
<stop offset="0.300451" stop-color="#CF896C"/>
</radialGradient>
<linearGradient id="paint29_linear_2785_8228" x1="15.3606" y1="19.0784" x2="17.0607" y2="20.6741" gradientUnits="userSpaceOnUse">
<stop stop-color="#2065A3"/>
<stop offset="1" stop-color="#2067AE" stop-opacity="0"/>
</linearGradient>
<linearGradient id="paint30_linear_2785_8228" x1="17.5481" y1="25.3523" x2="18.4985" y2="23.156" gradientUnits="userSpaceOnUse">
<stop offset="0.605233" stop-color="#1C60FF"/>
<stop offset="1" stop-color="#1963FF" stop-opacity="0"/>
</linearGradient>
<linearGradient id="paint31_linear_2785_8228" x1="21.1297" y1="19.1746" x2="19.8881" y2="19.831" gradientUnits="userSpaceOnUse">
<stop stop-color="#2093F1"/>
<stop offset="1" stop-color="#2294F3" stop-opacity="0"/>
</linearGradient>
<linearGradient id="paint32_linear_2785_8228" x1="27.3839" y1="10.9592" x2="28.1643" y2="13.5361" gradientUnits="userSpaceOnUse">
<stop stop-color="#2065A3"/>
<stop offset="1" stop-color="#2067AE" stop-opacity="0"/>
</linearGradient>
<linearGradient id="paint33_linear_2785_8228" x1="26.499" y1="18.9927" x2="28.1214" y2="17.807" gradientUnits="userSpaceOnUse">
<stop offset="0.605233" stop-color="#1C60FF"/>
<stop offset="1" stop-color="#1963FF" stop-opacity="0"/>
</linearGradient>
<linearGradient id="paint34_linear_2785_8228" x1="31.1561" y1="14.4054" x2="30.3394" y2="14.3631" gradientUnits="userSpaceOnUse">
<stop stop-color="#2093F1"/>
<stop offset="1" stop-color="#2294F3" stop-opacity="0"/>
</linearGradient>
<linearGradient id="paint35_linear_2785_8228" x1="9.91211" y1="30.4655" x2="11.92" y2="30.9504" gradientUnits="userSpaceOnUse">
<stop stop-color="#2065A3"/>
<stop offset="1" stop-color="#2067AE" stop-opacity="0"/>
</linearGradient>
<linearGradient id="paint36_linear_2785_8228" x1="14.3949" y1="35.1064" x2="14.2081" y2="32.7249" gradientUnits="userSpaceOnUse">
<stop offset="0.605233" stop-color="#1C60FF"/>
<stop offset="1" stop-color="#1963FF" stop-opacity="0"/>
</linearGradient>
<linearGradient id="paint37_linear_2785_8228" x1="15.6207" y1="28.4172" x2="14.7568" y2="29.678" gradientUnits="userSpaceOnUse">
<stop stop-color="#2093F1"/>
<stop offset="1" stop-color="#2294F3" stop-opacity="0"/>
</linearGradient>
</defs>
</svg>
