<svg width="18" height="18" viewBox="0 0 18 18" fill="none" xmlns="http://www.w3.org/2000/svg">
<path d="M17.6426 9.21514C17.6426 8.60734 17.5838 7.97992 17.4858 7.39172H8.99609V10.8621H13.8585C13.6625 11.9797 13.0155 12.96 12.0547 13.5874L14.9565 15.8422C16.6623 14.2541 17.6426 11.9405 17.6426 9.21514Z" fill="#4280EF"/>
<path d="M8.99576 17.9997C11.427 17.9997 13.4661 17.1958 14.9562 15.8234L12.0544 13.5882C11.2505 14.1372 10.2114 14.4509 8.99576 14.4509C6.64296 14.4509 4.66269 12.8628 3.93724 10.7452L0.957031 13.0392C2.48635 16.0783 5.5842 17.9997 8.99576 17.9997Z" fill="#34A353"/>
<path d="M3.93604 10.7264C3.56351 9.60882 3.56351 8.3932 3.93604 7.27562L0.955825 4.96204C-0.318608 7.5109 -0.318608 10.5107 0.955825 13.04L3.93604 10.7264Z" fill="#F6B704"/>
<path d="M8.99576 3.56888C10.2702 3.54927 11.525 4.03944 12.4465 4.92174L15.015 2.33366C13.3877 0.804337 11.2309 -0.0191424 8.99576 0.000464263C5.5842 0.000464263 2.48635 1.92192 0.957031 4.96095L3.93724 7.27453C4.66269 5.13741 6.64296 3.56888 8.99576 3.56888Z" fill="#E54335"/>
</svg>
